<svg xmlns="http://www.w3.org/2000/svg" width="128" height="128" viewBox="0 0 128 128">
  <path fill="#93C90E" fill-rule="evenodd" d="M97.5,56.0985236 C97.5,55.4917829 97.021719,55 96.4316365,55 C93.5736038,55 90.766912,57.3826813 87.2142573,60.3991931 C81.5366976,65.2196035 74.4709072,71.2189384 63.5003378,71.2189384 C52.5297684,71.2189384 45.4633024,65.2196035 39.7860804,60.3991931 C36.2332568,57.3826813 33.4269028,55 30.5683635,55 C29.9784498,55 29.5,55.4917829 29.5,56.0985236 C29.5,56.7052642 29.9784498,57.1970472 30.5683635,57.1970472 C32.6589849,57.1970472 35.3309069,59.4659863 38.4255468,62.0931699 C44.0536233,66.8717302 51.7615127,78.5 63.5003378,78.5 C77.5196105,78.5 80.6655913,68.8084727 88.574791,62.0931699 C91.6694309,59.4659863 94.3413529,57.1970472 96.4316365,57.1970472 C97.021719,57.1970472 97.5,56.7052642 97.5,56.0985236 M29.8942803,36.26537 C29.8942803,42.9125875 35.179872,48.3202491 41.6768077,48.3202491 C48.1737434,48.3202491 53.459335,42.9125875 53.459335,36.26537 C53.459335,29.6181525 48.1737434,24.2102988 41.6768077,24.2102988 C35.179872,24.2102988 29.8942803,29.6181525 29.8942803,36.26537 M73.8397757,36.26537 C73.8397757,42.9125875 79.1251796,48.3202491 85.6221152,48.3202491 C92.1190509,48.3202491 97.4044548,42.9125875 97.4044548,36.26537 C97.4044548,29.6181525 92.1190509,24.2102988 85.6221152,24.2102988 C79.1251796,24.2102988 73.8397757,29.6181525 73.8397757,36.26537 M121.108485,106.165875 C119.49768,105.794643 117.831847,105.607873 116.129392,105.607873 C108.806113,105.607873 102.529661,109.091927 100.00368,114 C97.4775111,109.091927 91.2012466,105.607873 83.8785311,105.607873 C82.175325,105.607873 80.5089288,105.794643 78.8986864,106.165875 C81.3779038,101.995464 86.0613918,98.7758082 91.7584648,97.174627 C92.532786,96.9573059 93.3253242,96.7691917 94.1345772,96.612782 L94.1345772,94.1507713 L94.1345772,81.5129109 C94.1345772,80.8415408 93.6027126,80.2973736 92.946521,80.2973736 C92.2903293,80.2973736 91.7584648,80.8415408 91.7584648,81.5129109 L91.7584648,94.6705355 C86.9500863,95.9237341 82.7396799,98.2468208 79.6949808,101.30853 C74.5620748,102.015256 69.1003218,102.492555 63.6496493,102.492555 C58.2002914,102.492555 52.7385384,102.015832 47.606008,101.309875 C44.5609333,98.2481658 40.3497756,95.9237341 35.5402703,94.6705355 L35.5402703,81.5129109 C35.5402703,80.8415408 35.0085936,80.2973736 34.3524019,80.2973736 C33.6960225,80.2973736 33.1643458,80.8415408 33.1643458,81.5129109 L33.1643458,94.1507713 L33.1643458,96.612782 C33.9730353,96.7691917 34.7661369,96.9573059 35.5402703,97.174627 C41.2375311,98.7758082 45.9208313,101.995464 48.4000487,106.165875 C46.7894307,105.794643 45.1235979,105.607873 43.4205796,105.607873 C36.0967373,105.607873 29.8210362,109.091927 27.2952431,114 C24.76945,109.091927 18.4935611,105.607873 11.1695309,105.607873 C9.46688832,105.607873 7.80049211,105.794643 6.19006187,106.165875 C8.68599398,101.96741 13.4173723,98.7381469 19.1653405,97.147726 C19.73101,96.9915085 20.30776,96.8537374 20.8920222,96.7292246 L20.8920222,94.2510733 L20.8920222,36.26537 C20.8920222,24.539643 30.2161785,15 41.6768077,15 C53.1376246,15 55.3912879,21.3697537 62.4614053,31.3536462 C62.8465939,31.8972369 62.9932698,32.5689914 63.6496493,32.5689914 C64.3058409,32.5689914 64.4585266,31.9014642 64.8377054,31.3536462 C72.1269916,20.8144419 74.1614861,15 85.6221152,15 C97.0827444,15 106.406713,24.539643 106.406713,36.26537 L106.406713,94.2510733 L106.406713,96.7257659 C106.967124,96.8445142 107.516642,96.9822854 108.059587,97.1308169 C113.840985,98.7137439 118.6026,101.950309 121.108485,106.165875 M38.8385065,36.2651779 C38.8385065,37.868857 40.1093848,39.1691323 41.6768077,39.1691323 C43.2440427,39.1691323 44.514921,37.868857 44.514921,36.2651779 C44.514921,34.6616908 43.2440427,33.3614156 41.6768077,33.3614156 C40.1093848,33.3614156 38.8385065,34.6616908 38.8385065,36.2651779 M34.4395436,36.2651779 C34.4395436,32.1823867 37.6863212,28.8606994 41.6768077,28.8606994 C45.667482,28.8606994 48.9140718,32.1823867 48.9140718,36.2651779 C48.9140718,40.347969 45.667482,43.6698485 41.6768077,43.6698485 C37.6863212,43.6698485 34.4395436,40.347969 34.4395436,36.2651779 M82.7838141,36.2651779 C82.7838141,37.868857 84.0546924,39.1691323 85.6221152,39.1691323 C87.1893503,39.1691323 88.4604164,37.868857 88.4604164,36.2651779 C88.4604164,34.6616908 87.1893503,33.3614156 85.6221152,33.3614156 C84.0546924,33.3614156 82.7838141,34.6616908 82.7838141,36.2651779 M78.385039,36.2651779 C78.385039,32.1823867 81.6318166,28.8606994 85.6221152,28.8606994 C89.6126017,28.8606994 92.8590037,32.1823867 92.8590037,36.2651779 C92.8590037,40.347969 89.6126017,43.6698485 85.6221152,43.6698485 C81.6318166,43.6698485 78.385039,40.347969 78.385039,36.2651779 M81.4601625,102.923354 C80.7029317,103.67485 80.0251424,104.474192 79.4431339,105.320418 C80.3340821,104.753961 81.0447373,103.919264 81.4601625,102.923354 M112.933322,95.425875 C112.675841,95.7121776 112.421365,96.0115464 112.161442,96.2865123 C116.615808,98.1276882 120.404591,100.820855 123.110114,104.112374 C124.770688,104.208257 126.404031,104.392336 128,104.671721 C124.901589,100.705181 119.542753,97.4872541 112.933322,95.425875 M18.5159099,94.8599949 L18.5159099,56.8939568 C16.0162217,55.3844308 13.5291164,54.5414713 11.2540433,54.5414713 C10.3202755,54.5414713 9.4379663,54.6919243 8.63134265,54.988603 C1.92500407,57.4559939 1.33003696,69.6984108 7.33210575,81.721393 C10.0577237,87.1809349 13.7424632,91.8555463 17.6136934,95.0844254 C17.9119281,95.0060284 18.2127922,94.9310902 18.5159099,94.8599949 M119.966629,81.721393 C125.969074,69.6984108 125.373919,57.4559939 118.667768,54.988603 C117.860957,54.6919243 116.978272,54.5412791 116.044504,54.5412791 C113.769806,54.5412791 111.282326,55.3880817 108.782825,56.8976076 L108.782825,94.8594184 C109.085192,94.9307059 109.384553,95.005452 109.682225,95.0832725 C113.554582,91.8555463 117.24026,87.1824721 119.966629,81.721393 M5.24314768,103.125303 C3.4638805,103.219456 1.71222069,103.386242 0,103.637381 C3.19550676,100.205784 8.53631318,97.3692743 15.1380442,95.425875 C11.1161942,97.3592826 7.70583825,99.9873104 5.24314768,103.125303"/>
</svg>
