<svg xmlns="http://www.w3.org/2000/svg" width="1200" height="270" viewBox="0 0 1200 270">
  <g fill="none" fill-rule="evenodd">
    <path fill="#93C90E" d="M167.578125,95.5599624 C167.578125,94.5171269 166.75608,93.671875 165.741875,93.671875 C160.829632,93.671875 156.00563,97.7671085 149.899505,102.951738 C140.141199,111.236818 127.996872,121.548175 109.141206,121.548175 C90.2855394,121.548175 78.140051,111.236818 68.3823258,102.951738 C62.2759102,97.7671085 57.4524892,93.671875 52.5393747,93.671875 C51.5254607,93.671875 50.703125,94.5171269 50.703125,95.5599624 C50.703125,96.6027979 51.5254607,97.4480498 52.5393747,97.4480498 C56.1326303,97.4480498 60.7249962,101.347789 66.0439085,105.863261 C75.7171651,114.076411 88.9651,134.0625 109.141206,134.0625 C133.236831,134.0625 138.643985,117.405188 152.237922,105.863261 C157.556834,101.347789 162.1492,97.4480498 165.741875,97.4480498 C166.75608,97.4480498 167.578125,96.6027979 167.578125,95.5599624 M51.3807943,61.4717297 C51.3807943,72.8966348 60.4654049,82.1910531 71.6320132,82.1910531 C82.7986214,82.1910531 91.8832321,72.8966348 91.8832321,61.4717297 C91.8832321,50.0468246 82.7986214,40.7520761 71.6320132,40.7520761 C60.4654049,40.7520761 51.3807943,50.0468246 51.3807943,61.4717297 M126.912114,61.4717297 C126.912114,72.8966348 135.996402,82.1910531 147.163011,82.1910531 C158.329619,82.1910531 167.413907,72.8966348 167.413907,61.4717297 C167.413907,50.0468246 158.329619,40.7520761 147.163011,40.7520761 C135.996402,40.7520761 126.912114,50.0468246 126.912114,61.4717297 M208.155209,181.613223 C205.386637,180.975167 202.523487,180.654158 199.597392,180.654158 C187.010507,180.654158 176.222854,186.642375 171.881325,195.078125 C167.539472,186.642375 156.752143,180.654158 144.166225,180.654158 C141.23884,180.654158 138.374721,180.975167 135.607117,181.613223 C139.868272,174.445329 147.918017,168.911545 157.709861,166.159515 C159.040726,165.785995 160.402901,165.462673 161.793804,165.193844 L161.793804,160.962263 L161.793804,139.240941 C161.793804,138.087023 160.879662,137.151736 159.751833,137.151736 C158.624004,137.151736 157.709861,138.087023 157.709861,139.240941 L157.709861,161.855608 C149.445461,164.009543 142.208825,168.002348 136.975748,173.264661 C128.153566,174.479345 118.766178,175.299703 109.397835,175.299703 C100.031751,175.299703 90.6443628,174.480336 81.8228263,173.266973 C76.5891041,168.00466 69.3511768,164.009543 61.0848396,161.855608 L61.0848396,139.240941 C61.0848396,138.087023 60.1710202,137.151736 59.0431908,137.151736 C57.9150387,137.151736 57.0012193,138.087023 57.0012193,139.240941 L57.0012193,160.962263 L57.0012193,165.193844 C58.3911544,165.462673 59.7542979,165.785995 61.0848396,166.159515 C70.8770066,168.911545 78.9264288,174.445329 83.1875837,181.613223 C80.419334,180.975167 77.5561839,180.654158 74.6291213,180.654158 C62.0412673,180.654158 51.254906,186.642375 46.9136991,195.078125 C42.5724921,186.642375 31.7858081,180.654158 19.1976313,180.654158 C16.2712143,180.654158 13.4070958,180.975167 10.6391688,181.613223 C14.9290522,174.397111 23.0611086,168.846815 32.940429,166.113279 C33.9126735,165.84478 34.9039625,165.607986 35.9081632,165.39398 L35.9081632,161.134657 L35.9081632,61.4717297 C35.9081632,41.3181363 51.9340569,24.921875 71.6320132,24.921875 C91.3302923,24.921875 95.2037761,35.8698892 107.35554,53.0297044 C108.017583,53.964001 108.269683,55.1185789 109.397835,55.1185789 C110.525664,55.1185789 110.788093,53.9712666 111.439806,53.0297044 C123.968267,34.915447 127.465054,24.921875 147.163011,24.921875 C166.860967,24.921875 182.886538,41.3181363 182.886538,61.4717297 L182.886538,161.134657 L182.886538,165.388035 C183.849744,165.592134 184.794229,165.828928 185.727415,166.084217 C195.664192,168.804872 203.848218,174.367719 208.155209,181.613223 M66.7536831,61.4713995 C66.7536831,64.227723 68.9380052,66.4625711 71.6320132,66.4625711 C74.3256984,66.4625711 76.5100204,64.227723 76.5100204,61.4713995 C76.5100204,58.7154061 74.3256984,56.4805581 71.6320132,56.4805581 C68.9380052,56.4805581 66.7536831,58.7154061 66.7536831,61.4713995 M59.1929655,61.4713995 C59.1929655,54.4541021 64.7733645,48.7449521 71.6320132,48.7449521 C78.4909846,48.7449521 84.0710608,54.4541021 84.0710608,61.4713995 C84.0710608,68.4886968 78.4909846,74.198177 71.6320132,74.198177 C64.7733645,74.198177 59.1929655,68.4886968 59.1929655,61.4713995 M142.284681,61.4713995 C142.284681,64.227723 144.469003,66.4625711 147.163011,66.4625711 C149.856696,66.4625711 152.041341,64.227723 152.041341,61.4713995 C152.041341,58.7154061 149.856696,56.4805581 147.163011,56.4805581 C144.469003,56.4805581 142.284681,58.7154061 142.284681,61.4713995 M134.724286,61.4713995 C134.724286,54.4541021 140.304685,48.7449521 147.163011,48.7449521 C154.021659,48.7449521 159.601413,54.4541021 159.601413,61.4713995 C159.601413,68.4886968 154.021659,74.198177 147.163011,74.198177 C140.304685,74.198177 134.724286,68.4886968 134.724286,61.4713995 M140.009654,176.040139 C138.708164,177.331774 137.543214,178.705642 136.542886,180.160093 C138.074204,179.186496 139.295642,177.75186 140.009654,176.040139 M194.104147,163.153848 C193.661601,163.64593 193.22422,164.16047 192.777479,164.633068 C200.433419,167.797589 206.945391,172.426469 211.595509,178.083769 C214.449621,178.248567 217.256928,178.564953 220,179.045146 C214.674605,172.227654 205.464106,166.696843 194.104147,163.153848 M31.8242201,162.181241 L31.8242201,96.9271133 C27.527881,94.3326155 23.2531688,92.8837788 19.3428869,92.8837788 C17.7379735,92.8837788 16.2215046,93.1423699 14.8351202,93.6522864 C3.30860075,97.8931145 2.28600102,118.934769 12.6020568,139.599269 C17.2867126,148.982857 23.6198586,157.017345 30.2735354,162.566981 C30.7861265,162.432236 31.3032366,162.303436 31.8242201,162.181241 M206.192644,139.599269 C216.509346,118.934769 215.486423,97.8931145 203.960226,93.6522864 C202.573519,93.1423699 201.056405,92.8834485 199.451491,92.8834485 C195.541855,92.8834485 191.266497,94.3388904 186.970481,96.9333881 L186.970481,162.18025 C187.490173,162.302776 188.004701,162.431246 188.516324,162.565 C195.171937,157.017345 201.506697,148.985499 206.192644,139.599269 M9.01166007,176.387239 C5.9535446,176.549065 2.94287932,176.835728 0,177.267374 C5.49227724,171.369317 14.6717883,166.494065 26.0185135,163.153848 C19.1059589,166.476892 13.2444095,170.993815 9.01166007,176.387239"/>
    <path fill="#333" d="M262.669728,258.497159 C270.48222,258.497159 276.980794,253.490061 279.377809,246.281261 L273.873552,246.281261 C272.133497,250.933245 267.65907,253.490061 262.900552,253.490061 C256.828114,253.490061 253.010646,248.873588 254.466611,240.155557 C255.940331,231.17119 261.604388,226.146337 268.049694,226.146337 C272.524122,226.146337 275.897698,228.75642 276.021988,233.461671 L281.455394,233.461671 C281.490733,225.68469 276.039744,221.13924 268.227251,221.13924 C258.958794,221.13924 251.057523,227.992926 249.122156,239.480842 C247.186788,251.270603 253.063913,258.497159 262.669728,258.497159 Z M297.215897,258.550426 C304.77981,258.550426 310.621424,253.046169 311.98861,244.718763 C313.373552,236.107265 309.236482,230.372185 301.441745,230.372185 C293.860076,230.372185 288.018462,235.876442 286.669032,244.257115 C285.28409,252.815346 289.42116,258.550426 297.215897,258.550426 Z M297.517743,254.093754 C292.61718,254.093754 291.090192,249.814638 291.906953,244.701007 C292.776981,239.356552 296.026267,234.811102 301.139899,234.811102 C306.040462,234.811102 307.567449,239.125728 306.750689,244.257115 C305.880661,249.601571 302.613619,254.093754 297.517743,254.093754 Z M323.008516,258 L325.671866,241.806834 C326.453115,237.456696 329.489334,234.970903 333.200268,234.970903 C336.822424,234.970903 338.59799,237.350162 337.941031,241.291919 L335.153391,258 L340.462335,258 L343.374264,240.652715 C344.492871,233.887807 341.314607,230.372185 335.792595,230.372185 C331.691037,230.372185 328.654818,232.254286 326.932518,235.166215 L326.595161,235.166215 L327.340899,230.727299 L322.245023,230.727299 L317.699573,258 L323.008516,258 Z M354.873573,258 L357.536923,241.806834 C358.318172,237.456696 361.354391,234.970903 365.065325,234.970903 C368.687481,234.970903 370.463047,237.350162 369.806087,241.291919 L367.018448,258 L372.327392,258 L375.239321,240.652715 C376.357928,233.887807 373.179664,230.372185 367.657652,230.372185 C363.556093,230.372185 360.519875,232.254286 358.797575,235.166215 L358.460218,235.166215 L359.205955,230.727299 L354.11008,230.727299 L349.564629,258 L354.873573,258 Z M393.095158,258.550426 C399.061061,258.550426 403.730801,255.620741 405.683924,251.181825 L400.818872,250.276286 C399.416175,252.850857 396.965893,254.164776 393.876407,254.164776 C389.082378,254.164776 386.561073,251.892051 387.484368,245.961659 L406.909065,245.961659 L407.210912,244.079559 C408.862188,234.225165 403.606512,230.372185 397.409785,230.372185 C389.81036,230.372185 383.844457,236.160532 382.459515,244.541206 C381.039062,253.010658 385.051842,258.550426 393.095158,258.550426 Z M402.310348,241.98439 L388.159083,241.98439 C388.940332,238.415502 392.580244,234.757835 396.717314,234.757835 C400.854384,234.757835 403.020575,237.811809 402.310348,241.98439 Z M424.267744,258.550426 C430.695294,258.550426 435.471568,254.679691 437.016311,249.370747 L431.831657,249.370747 C430.659783,252.318187 428.085212,254.058242 425.048993,254.058242 C420.539054,254.058242 418.248573,250.311797 419.260646,244.363649 C420.183941,238.522036 423.770585,234.846613 428.227257,234.846613 C431.600833,234.846613 433.323133,236.977293 433.465178,239.534109 L438.632076,239.534109 C438.951678,234.029852 435.098699,230.372185 428.901972,230.372185 C421.196014,230.372185 415.23011,236.160532 413.898435,244.487939 C412.513493,252.708812 416.348717,258.550426 424.267744,258.550426 Z M452.954535,258.355113 C454.659079,258.337358 455.848708,258.017756 456.558935,257.786932 L456.274844,253.401283 C455.901975,253.472305 455.245016,253.632106 454.392744,253.632106 C452.670444,253.632106 451.196724,253.063925 451.693883,249.992195 L454.197431,234.988658 L459.825977,234.988658 L460.518448,230.727299 L454.907658,230.727299 L455.990754,224.193214 L450.68181,224.193214 L449.598714,230.727299 L445.621445,230.727299 L444.928974,234.988658 L448.906243,234.988658 L446.242894,251.093046 C445.408377,256.029121 448.746442,258.426136 452.954535,258.355113 Z M475.231522,258.550426 C481.197425,258.550426 485.867165,255.620741 487.820288,251.181825 L482.955236,250.276286 C481.552538,252.850857 479.102257,254.164776 476.012771,254.164776 C471.218741,254.164776 468.697437,251.892051 469.620732,245.961659 L489.045429,245.961659 L489.347275,244.079559 C490.998552,234.225165 485.742875,230.372185 479.546148,230.372185 C471.946724,230.372185 465.98082,236.160532 464.595878,244.541206 C463.175425,253.010658 467.188206,258.550426 475.231522,258.550426 Z M484.446712,241.98439 L470.295447,241.98439 C471.076696,238.415502 474.716607,234.757835 478.853677,234.757835 C482.990747,234.757835 485.156938,237.811809 484.446712,241.98439 Z M505.196722,258.53267 C510.150552,258.53267 512.600834,255.496451 513.861486,253.756396 L514.287622,253.756396 L513.577396,258 L518.76205,258 L524.798976,221.636398 L519.490032,221.636398 L517.235063,235.148459 L516.915461,235.148459 C516.258501,233.461671 514.944582,230.372185 509.884218,230.372185 C503.27911,230.372185 497.561786,235.574595 496.088066,244.416916 C494.649857,253.241482 498.556103,258.53267 505.196722,258.53267 Z M506.990044,254.004975 C502.231526,254.004975 500.580249,249.832394 501.485788,244.363649 C502.373571,238.948172 505.356523,234.882124 510.132797,234.882124 C514.784781,234.882124 516.75566,238.664081 515.81461,244.363649 C514.873559,250.098729 511.55325,254.004975 506.990044,254.004975 Z M556.089475,258.603693 C564.62995,258.603693 570.24074,254.111509 571.288325,247.950294 C572.37142,241.398453 566.955942,238.859393 562.552537,237.723031 L559.14345,236.799736 C556.444589,236.08951 552.857944,234.740079 553.461637,231.259969 C553.958796,228.152727 557.154815,225.880002 561.629243,225.880002 C565.801824,225.880002 568.269862,227.81537 568.23435,231.402014 L573.525538,231.402014 C574.271276,225.365088 569.921138,221.13924 562.534782,221.13924 C555.237204,221.13924 548.98721,225.294065 547.904114,231.579571 C547.087353,236.639935 550.21235,239.587376 555.769873,241.185385 L559.871432,242.357259 C563.617877,243.387088 566.423272,244.683251 565.855091,247.897027 C565.28691,251.430404 561.504953,253.791907 556.835213,253.791907 C552.609365,253.791907 549.377834,251.909807 549.750703,247.950294 L544.228691,247.950294 C543.482953,254.537645 547.939625,258.603693 556.089475,258.603693 Z M589.428255,258.550426 C595.394158,258.550426 600.063898,255.620741 602.017021,251.181825 L597.151969,250.276286 C595.749271,252.850857 593.29899,254.164776 590.209504,254.164776 C585.415474,254.164776 582.89417,251.892051 583.817465,245.961659 L603.242162,245.961659 L603.544008,244.079559 C605.195285,234.225165 599.939608,230.372185 593.742881,230.372185 C586.143457,230.372185 580.177553,236.160532 578.792611,244.541206 C577.372158,253.010658 581.384938,258.550426 589.428255,258.550426 Z M598.643445,241.98439 L584.49218,241.98439 C585.273429,238.415502 588.91334,234.757835 593.05041,234.757835 C597.18748,234.757835 599.353671,237.811809 598.643445,241.98439 Z M614.492891,258 L620.529817,221.636398 L615.220874,221.636398 L609.183948,258 L614.492891,258 Z M628.939624,258 L634.97655,221.636398 L629.667607,221.636398 L623.630681,258 L628.939624,258 Z M646.369309,226.465939 C648.215898,226.465939 649.796152,225.045486 649.867175,223.305431 C649.955953,221.54762 648.499989,220.127167 646.671155,220.127167 C644.824566,220.127167 643.244312,221.54762 643.173289,223.305431 C643.084511,225.045486 644.540476,226.465939 646.369309,226.465939 Z M643.386357,258 L647.931808,230.727299 L642.622864,230.727299 L638.077414,258 L643.386357,258 Z M657.850846,258 L660.514196,241.806834 C661.295445,237.456696 664.331664,234.970903 668.042598,234.970903 C671.664753,234.970903 673.44032,237.350162 672.78336,241.291919 L669.995721,258 L675.304665,258 L678.216594,240.652715 C679.3352,233.887807 676.156936,230.372185 670.634925,230.372185 C666.533366,230.372185 663.497147,232.254286 661.774848,235.166215 L661.43749,235.166215 L662.183228,230.727299 L657.087352,230.727299 L652.541902,258 L657.850846,258 Z M694.119308,268.795444 C701.026261,268.795444 706.921142,265.634936 708.057505,258.603693 L712.673977,230.727299 L707.471568,230.727299 L706.743585,235.148459 L706.352961,235.148459 C705.696001,233.461671 704.328815,230.372185 699.250695,230.372185 C692.663343,230.372185 686.946019,235.574595 685.525566,244.257115 C684.069601,252.957391 688.259938,257.59162 694.723,257.59162 C699.712342,257.59162 702.127113,254.768469 703.334498,253.028414 L703.671855,253.028414 L702.837339,258.390625 C702.127113,262.651984 698.789048,264.516329 694.776267,264.516329 C690.319595,264.516329 689.094455,262.296871 688.384228,260.734372 L683.483664,262.616473 C684.406959,265.954538 687.567467,268.795444 694.119308,268.795444 Z M696.534078,253.188215 C691.757804,253.188215 690.017749,249.548304 690.887777,244.186093 C691.757804,238.948172 694.687489,234.882124 699.51703,234.882124 C704.115747,234.882124 706.139893,238.664081 705.216598,244.186093 C704.293304,249.814638 701.079528,253.188215 696.534078,253.188215 Z M721.190336,258.337358 C723.090192,258.337358 724.759225,256.757103 724.848003,254.786225 C724.936781,252.886369 723.321016,251.306114 721.403404,251.306114 C719.468036,251.306114 717.763493,252.833102 717.745737,254.786225 C717.710226,256.757103 719.183946,258.337358 721.190336,258.337358 Z M760.595157,258.603693 C769.135632,258.603693 774.746422,254.111509 775.794006,247.950294 C776.877102,241.398453 771.461624,238.859393 767.058219,237.723031 L763.649132,236.799736 C760.950271,236.08951 757.363626,234.740079 757.967319,231.259969 C758.464477,228.152727 761.660497,225.880002 766.134925,225.880002 C770.307506,225.880002 772.775543,227.81537 772.740032,231.402014 L778.03122,231.402014 C778.776958,225.365088 774.42682,221.13924 767.040464,221.13924 C759.742885,221.13924 753.492891,225.294065 752.409796,231.579571 C751.593035,236.639935 754.718032,239.587376 760.275555,241.185385 L764.377114,242.357259 C768.123559,243.387088 770.928954,244.683251 770.360773,247.897027 C769.792592,251.430404 766.010635,253.791907 761.340895,253.791907 C757.115047,253.791907 753.883516,251.909807 754.256385,247.950294 L748.734373,247.950294 C747.988635,254.537645 752.445307,258.603693 760.595157,258.603693 Z M793.933936,258.550426 C799.89984,258.550426 804.56958,255.620741 806.522703,251.181825 L801.657651,250.276286 C800.254953,252.850857 797.804671,254.164776 794.715186,254.164776 C789.921156,254.164776 787.399852,251.892051 788.323146,245.961659 L807.747844,245.961659 L808.04969,244.079559 C809.700967,234.225165 804.44529,230.372185 798.248563,230.372185 C790.649138,230.372185 784.683235,236.160532 783.298293,244.541206 C781.87784,253.010658 785.89062,258.550426 793.933936,258.550426 Z M803.149127,241.98439 L788.997862,241.98439 C789.779111,238.415502 793.419022,234.757835 797.556092,234.757835 C801.693162,234.757835 803.859353,237.811809 803.149127,241.98439 Z M821.555389,258.603693 C826.065328,258.603693 828.977257,256.313212 830.326687,254.27131 L830.539755,254.27131 L829.900551,258 L835.085206,258 L838.085913,239.889222 C839.399832,231.95244 833.451684,230.372185 829.119302,230.372185 C824.183227,230.372185 819.247153,232.36082 816.690337,237.332406 L821.448855,238.468769 C822.585218,236.533401 825.017744,234.669056 828.568877,234.669056 C831.977964,234.669056 833.327395,236.480134 832.830236,239.551864 L832.830236,239.676154 C832.492879,241.57601 830.468733,241.558254 825.514902,242.144191 C820.24147,242.747884 814.737214,244.11507 813.689629,250.294041 C812.819602,255.638497 816.370735,258.603693 821.555389,258.603693 Z M823.366467,254.342333 C820.365759,254.342333 818.465903,252.992903 818.892039,250.365064 C819.335931,247.524158 822.088059,246.512085 825.213056,246.103705 C826.953111,245.872881 831.107937,245.411234 831.99572,244.64774 L831.409783,248.163362 C830.877113,251.394893 827.787627,254.342333 823.366467,254.342333 Z M849.478687,258 L852.284082,241.185385 C852.870019,237.527718 855.888482,234.953147 858.906945,234.953147 C861.872141,234.953147 863.558929,236.90627 863.097282,239.871466 L860.061063,258 L865.334496,258 L868.26418,240.617204 C868.79685,237.296895 871.193865,234.953147 874.65622,234.953147 C877.461615,234.953147 879.485761,236.49789 878.899824,240.208824 L875.916872,258 L881.243571,258 L884.297546,239.711665 C885.327374,233.479427 882.344423,230.372185 877.443859,230.372185 C873.502101,230.372185 870.217303,232.23653 868.459493,235.166215 L868.175402,235.166215 C867.482931,232.183263 865.227962,230.372185 861.641317,230.372185 C858.036917,230.372185 855.053966,232.165508 853.402689,235.166215 L853.065331,235.166215 L853.811069,230.727299 L848.715193,230.727299 L844.169743,258 L849.478687,258 Z M895.637068,258 L901.673994,221.636398 L896.36505,221.636398 L890.328124,258 L895.637068,258 Z M916.458084,258.550426 C922.423988,258.550426 927.093727,255.620741 929.046851,251.181825 L924.181798,250.276286 C922.779101,252.850857 920.328819,254.164776 917.239333,254.164776 C912.445304,254.164776 909.924,251.892051 910.847294,245.961659 L930.271991,245.961659 L930.573838,244.079559 C932.225115,234.225165 926.969438,230.372185 920.772711,230.372185 C913.173286,230.372185 907.207383,236.160532 905.822441,244.541206 C904.401988,253.010658 908.414768,258.550426 916.458084,258.550426 Z M925.673274,241.98439 L911.522009,241.98439 C912.303259,238.415502 915.94317,234.757835 920.08024,234.757835 C924.21731,234.757835 926.383501,237.811809 925.673274,241.98439 Z M946.068171,258.550426 C952.5845,258.550426 957.680376,255.105827 958.497137,250.223019 C959.136341,246.299017 957.041172,243.902002 952.211631,242.747884 L948.021294,241.753567 C945.162632,241.04334 944.097292,240.049023 944.399139,238.291212 C944.736496,236.125021 947.311068,234.580278 950.365042,234.580278 C953.667596,234.580278 954.821714,236.3736 955.141316,238.237945 L960.095146,237.385673 C959.66901,233.106558 956.792593,230.372185 950.844445,230.372185 C944.736496,230.372185 939.871444,233.568205 939.072439,238.344479 C938.397724,242.268481 940.386358,244.860808 945.322433,246.014926 L949.725838,247.026999 C952.30041,247.630692 953.276971,248.713787 952.99288,250.400575 C952.655523,252.549011 950.027684,254.289066 946.494307,254.27131 C943.387066,254.27131 941.611499,252.904124 941.416187,250.223019 L936.16051,251.004268 C936.267044,255.816053 939.853688,258.550426 946.068171,258.550426 Z M974.861495,258.550426 C981.377824,258.550426 986.4737,255.105827 987.29046,250.223019 C987.929664,246.299017 985.834496,243.902002 981.004955,242.747884 L976.814618,241.753567 C973.955956,241.04334 972.890616,240.049023 973.192463,238.291212 C973.52982,236.125021 976.104392,234.580278 979.158366,234.580278 C982.46092,234.580278 983.615038,236.3736 983.93464,238.237945 L988.88847,237.385673 C988.462334,233.106558 985.585917,230.372185 979.637769,230.372185 C973.52982,230.372185 968.664768,233.568205 967.865763,238.344479 C967.191048,242.268481 969.179682,244.860808 974.115757,246.014926 L978.519162,247.026999 C981.093733,247.630692 982.070295,248.713787 981.786204,250.400575 C981.448847,252.549011 978.821008,254.289066 975.287631,254.27131 C972.18039,254.27131 970.404823,252.904124 970.209511,250.223019 L964.953834,251.004268 C965.060368,255.816053 968.647012,258.550426 974.861495,258.550426 Z M1023.4105,258 C1031.86219,258 1036.38989,253.774152 1037.33094,248.216629 C1038.23648,242.588083 1034.80963,239.409819 1031.2585,239.214507 L1031.32952,238.859393 C1034.75637,238.007121 1037.91687,235.734396 1038.68037,231.188946 C1039.60366,225.80898 1036.56744,221.636398 1028.82597,221.636398 L1015.50923,221.636398 L1009.4723,258 L1023.4105,258 Z M1025.75424,237.367917 L1018.42115,237.367917 L1020.23223,226.306138 L1027.72512,226.306138 C1032.07526,226.306138 1033.76205,228.596619 1033.22938,231.615082 C1032.71446,235.112948 1029.44742,237.367917 1025.75424,237.367917 Z M1023.65908,253.294749 L1015.74005,253.294749 L1017.69317,241.647033 L1025.80751,241.647033 C1030.22867,241.647033 1032.46589,244.487939 1031.93322,247.950294 C1031.40055,251.004268 1028.91475,253.294749 1023.65908,253.294749 Z M1052.62996,258.355113 C1056.73152,258.355113 1059.9453,256.188922 1061.64984,253.276993 L1061.93393,253.276993 L1061.13493,258 L1066.35509,258 L1070.90054,230.727299 L1065.57384,230.727299 L1062.91049,246.689641 C1062.147,251.32387 1058.36504,253.525572 1055.38209,253.525572 C1052.09729,253.525572 1050.23295,251.146313 1050.81888,247.435379 L1053.60652,230.727299 L1048.29758,230.727299 L1045.38565,248.074583 C1044.2848,254.839492 1047.39204,258.355113 1052.62996,258.355113 Z M1077.16193,268.227263 C1081.47656,268.227263 1084.67258,266.007805 1086.99857,261.6044 L1103.35153,230.727299 L1097.4389,230.727299 L1086.99857,251.945318 L1086.71448,251.945318 L1083.3409,230.727299 L1077.87216,230.727299 L1083.21661,258.248579 L1082.22229,260.041901 C1080.2159,263.646301 1078.42258,264.090193 1075.63494,263.291188 L1073.6108,267.641326 C1074.21449,267.925417 1075.56392,268.227263 1077.16193,268.227263 Z M1114.12286,226.465939 C1115.96945,226.465939 1117.5497,225.045486 1117.62073,223.305431 C1117.7095,221.54762 1116.25354,220.127167 1114.42471,220.127167 C1112.57812,220.127167 1110.99786,221.54762 1110.92684,223.305431 C1110.83806,225.045486 1112.29403,226.465939 1114.12286,226.465939 Z M1111.13991,258 L1115.68536,230.727299 L1110.37641,230.727299 L1105.83096,258 L1111.13991,258 Z M1125.6044,258 L1128.26775,241.806834 C1129.049,237.456696 1132.08521,234.970903 1135.79615,234.970903 C1139.4183,234.970903 1141.19387,237.350162 1140.53691,241.291919 L1137.74927,258 L1143.05822,258 L1145.97014,240.652715 C1147.08875,233.887807 1143.91049,230.372185 1138.38848,230.372185 C1134.28692,230.372185 1131.2507,232.254286 1129.5284,235.166215 L1129.19104,235.166215 L1129.93678,230.727299 L1124.8409,230.727299 L1120.29545,258 L1125.6044,258 Z M1161.87286,268.795444 C1168.77981,268.795444 1174.67469,265.634936 1175.81106,258.603693 L1180.42753,230.727299 L1175.22512,230.727299 L1174.49714,235.148459 L1174.10651,235.148459 C1173.44955,233.461671 1172.08237,230.372185 1167.00425,230.372185 C1160.41689,230.372185 1154.69957,235.574595 1153.27912,244.257115 C1151.82315,252.957391 1156.01349,257.59162 1162.47655,257.59162 C1167.46589,257.59162 1169.88066,254.768469 1171.08805,253.028414 L1171.42541,253.028414 L1170.59089,258.390625 C1169.88066,262.651984 1166.5426,264.516329 1162.52982,264.516329 C1158.07315,264.516329 1156.84801,262.296871 1156.13778,260.734372 L1151.23722,262.616473 C1152.16051,265.954538 1155.32102,268.795444 1161.87286,268.795444 Z M1164.28763,253.188215 C1159.51136,253.188215 1157.7713,249.548304 1158.64133,244.186093 C1159.51136,238.948172 1162.44104,234.882124 1167.27058,234.882124 C1171.8693,234.882124 1173.89344,238.664081 1172.97015,244.186093 C1172.04685,249.814638 1168.83308,253.188215 1164.28763,253.188215 Z M1188.94389,258.337358 C1190.84374,258.337358 1192.51278,256.757103 1192.60155,254.786225 C1192.69033,252.886369 1191.07457,251.306114 1189.15696,251.306114 C1187.22159,251.306114 1185.51704,252.833102 1185.49929,254.786225 C1185.46378,256.757103 1186.9375,258.337358 1188.94389,258.337358 Z"/>
    <path fill="#93C90E" d="M283.576,180 L283.576,137.628 L320.812,137.628 C330.370667,137.485333 338.716667,136.023 345.85,133.241 C352.983333,130.459 358.939667,126.642667 363.719,121.792 C368.498333,116.941333 372.100667,111.270333 374.526,104.779 C376.951333,98.2876667 378.164,91.3326667 378.164,83.914 C378.164,76.638 376.987,69.7543333 374.633,63.263 C372.279,56.7716667 368.712333,51.065 363.933,46.143 C359.153667,41.221 353.161667,37.3333333 345.957,34.48 C338.752333,31.6266667 330.370667,30.2 320.812,30.2 L320.812,30.2 L250.192,30.2 L250.192,180 L283.576,180 Z M320.812,107.026 L283.576,107.026 L283.576,61.872 L320.812,61.872 C328.801333,61.872 334.793333,64.1546667 338.788,68.72 C342.782667,73.2853333 344.78,78.564 344.78,84.556 C344.78,90.548 342.818333,95.791 338.895,100.285 C334.971667,104.779 328.944,107.026 320.812,107.026 L320.812,107.026 Z M515.84,180 L515.84,149.184 L434.52,149.184 L434.52,119.01 L508.35,119.01 L508.35,89.692 L434.52,89.692 L434.52,60.802 L512.844,60.802 L512.844,30.2 L401.778,30.2 L401.778,180 L515.84,180 Z M577.546,180 L577.546,137.628 L614.782,137.628 C624.340667,137.485333 632.686667,136.023 639.82,133.241 C646.953333,130.459 652.909667,126.642667 657.689,121.792 C662.468333,116.941333 666.070667,111.270333 668.496,104.779 C670.921333,98.2876667 672.134,91.3326667 672.134,83.914 C672.134,76.638 670.957,69.7543333 668.603,63.263 C666.249,56.7716667 662.682333,51.065 657.903,46.143 C653.123667,41.221 647.131667,37.3333333 639.927,34.48 C632.722333,31.6266667 624.340667,30.2 614.782,30.2 L614.782,30.2 L544.162,30.2 L544.162,180 L577.546,180 Z M614.782,107.026 L577.546,107.026 L577.546,61.872 L614.782,61.872 C622.771333,61.872 628.763333,64.1546667 632.758,68.72 C636.752667,73.2853333 638.75,78.564 638.75,84.556 C638.75,90.548 636.788333,95.791 632.865,100.285 C628.941667,104.779 622.914,107.026 614.782,107.026 L614.782,107.026 Z M729.132,180 L729.132,137.628 L766.368,137.628 C775.926667,137.485333 784.272667,136.023 791.406,133.241 C798.539333,130.459 804.495667,126.642667 809.275,121.792 C814.054333,116.941333 817.656667,111.270333 820.082,104.779 C822.507333,98.2876667 823.72,91.3326667 823.72,83.914 C823.72,76.638 822.543,69.7543333 820.189,63.263 C817.835,56.7716667 814.268333,51.065 809.489,46.143 C804.709667,41.221 798.717667,37.3333333 791.513,34.48 C784.308333,31.6266667 775.926667,30.2 766.368,30.2 L766.368,30.2 L695.748,30.2 L695.748,180 L729.132,180 Z M766.368,107.026 L729.132,107.026 L729.132,61.872 L766.368,61.872 C774.357333,61.872 780.349333,64.1546667 784.344,68.72 C788.338667,73.2853333 790.336,78.564 790.336,84.556 C790.336,90.548 788.374333,95.791 784.451,100.285 C780.527667,104.779 774.5,107.026 766.368,107.026 L766.368,107.026 Z M961.396,180 L961.396,149.184 L880.076,149.184 L880.076,119.01 L953.906,119.01 L953.906,89.692 L880.076,89.692 L880.076,60.802 L958.4,60.802 L958.4,30.2 L847.334,30.2 L847.334,180 L961.396,180 Z M1023.102,180 L1023.102,130.78 L1047.284,130.78 L1085.59,180 L1122.612,180 L1122.612,177.432 L1081.524,127.784 C1088.65733,125.216 1094.471,122.22 1098.965,118.796 C1103.459,115.372 1106.99,111.662667 1109.558,107.668 C1112.126,103.673333 1113.87367,99.3933333 1114.801,94.828 C1115.72833,90.2626667 1116.192,85.5546667 1116.192,80.704 C1116.192,74.1413333 1115.015,67.8283333 1112.661,61.765 C1110.307,55.7016667 1106.776,50.316 1102.068,45.608 C1097.36,40.9 1091.54633,37.155 1084.627,34.373 C1077.70767,31.591 1069.754,30.2 1060.766,30.2 L1060.766,30.2 L989.718,30.2 L989.718,180 L1023.102,180 Z M1061.194,102.532 L1023.102,102.532 L1023.102,58.876 L1060.766,58.876 C1064.618,58.876 1067.97067,59.5893333 1070.824,61.016 C1073.67733,62.4426667 1075.99567,64.226 1077.779,66.366 C1079.56233,68.506 1080.91767,70.9313333 1081.845,73.642 C1082.77233,76.3526667 1083.236,78.992 1083.236,81.56 C1083.236,83.8426667 1082.808,86.2323333 1081.952,88.729 C1081.096,91.2256667 1079.77633,93.5083333 1077.993,95.577 C1076.20967,97.6456667 1073.927,99.322 1071.145,100.606 C1068.363,101.89 1065.046,102.532 1061.194,102.532 L1061.194,102.532 Z M1180.038,180 L1180.038,30.2 L1146.868,30.2 L1146.868,180 L1180.038,180 Z"/>
  </g>
</svg>
